<svg width="256" height="160" viewBox="0 0 256 160" fill="none" xmlns="http://www.w3.org/2000/svg">
  <defs>
    <linearGradient id="atvBox" x1="86" y1="44" x2="86" y2="112" gradientUnits="userSpaceOnUse">
      <stop stop-color="#2F3642"/>
      <stop offset="1" stop-color="#121821"/>
    </linearGradient>
    <linearGradient id="atvRemote" x1="182" y1="26" x2="202" y2="132" gradientUnits="userSpaceOnUse">
      <stop stop-color="#F8FAFC"/>
      <stop offset="1" stop-color="#CBD5E1"/>
    </linearGradient>
    <linearGradient id="atvRemotePad" x1="182" y1="34" x2="182" y2="58" gradientUnits="userSpaceOnUse">
      <stop stop-color="#334155"/>
      <stop offset="1" stop-color="#0F172A"/>
    </linearGradient>
  </defs>

  <rect x="42" y="52" width="92" height="56" rx="16" fill="url(#atvBox)"/>
  <rect x="42" y="52" width="92" height="56" rx="16" stroke="#334155" stroke-width="3"/>
  <path d="M86.7 64.2C88.2 60.8 91.4 58.3 94.6 58C95.1 61.3 94 64.6 91.9 66.7C90.1 68.6 87.1 70 84.1 69.8C84 67.4 85 65.7 86.7 64.2Z" fill="#F8FAFC"/>
  <path d="M101.2 86.4C100.2 83.9 98 82 95.4 82C92.3 82 91.2 83.9 89 83.9C86.7 83.9 85.3 82.1 82.7 82.1C77.7 82.1 73.1 86.4 73.1 93.7C73.1 98.4 74.9 103.4 77.1 106.7C79 109.6 81.1 112.8 84 112.8C86.6 112.8 87.6 111.2 90.5 111.2C93.4 111.2 94.3 112.8 97 112.8C100 112.8 102 109.9 103.9 107C105.3 104.8 105.9 103.7 107 100.9C100.1 98.3 101.2 88.2 101.2 86.4Z" fill="#F8FAFC"/>

  <rect x="160" y="22" width="44" height="116" rx="18" fill="url(#atvRemote)"/>
  <rect x="160" y="22" width="44" height="116" rx="18" stroke="#CBD5E1" stroke-width="2.5"/>
  <circle cx="182" cy="46" r="15" fill="url(#atvRemotePad)"/>
  <circle cx="182" cy="46" r="9" stroke="#64748B" stroke-width="2"/>
  <circle cx="194" cy="34" r="2.5" fill="#475569"/>
  <rect x="173" y="70" width="18" height="18" rx="9" fill="#0F172A"/>
  <path d="M178 79H186" stroke="#F8FAFC" stroke-width="2.5" stroke-linecap="round"/>
  <rect x="170" y="93" width="24" height="32" rx="12" fill="#111827"/>
  <path d="M182 101V117" stroke="#F8FAFC" stroke-width="3" stroke-linecap="round"/>
  <path d="M174 109H190" stroke="#F8FAFC" stroke-width="3" stroke-linecap="round"/>
</svg>
