<svg width="256" height="320" viewBox="0 0 256 320" fill="none" xmlns="http://www.w3.org/2000/svg">
  <defs>
    <linearGradient id="fanMetal" x1="128" y1="40" x2="128" y2="294" gradientUnits="userSpaceOnUse">
      <stop stop-color="#F8FAFC"/>
      <stop offset="0.45" stop-color="#DDE4EE"/>
      <stop offset="1" stop-color="#B8C4D3"/>
    </linearGradient>
    <linearGradient id="fanBlade" x1="128" y1="70" x2="128" y2="158" gradientUnits="userSpaceOnUse">
      <stop stop-color="#D8E0EA"/>
      <stop offset="1" stop-color="#AEBAC8"/>
    </linearGradient>
  </defs>
  <ellipse cx="128" cy="286" rx="62" ry="16" fill="#E2E8F0"/>
  <rect x="121" y="132" width="14" height="122" rx="7" fill="url(#fanMetal)"/>
  <rect x="115" y="248" width="26" height="22" rx="9" fill="#E5E7EB"/>
  <ellipse cx="128" cy="282" rx="52" ry="14" fill="#F8FAFC" stroke="#CBD5E1" stroke-width="4"/>
  <ellipse cx="128" cy="282" rx="45" ry="8" fill="#D1D9E4"/>
  <circle cx="128" cy="98" r="58" fill="#F8FAFC" stroke="#CBD5E1" stroke-width="4"/>
  <circle cx="128" cy="98" r="48" stroke="#CBD5E1" stroke-width="3"/>
  <circle cx="128" cy="98" r="38" stroke="#CBD5E1" stroke-width="2.5"/>
  <path d="M128 98C163 79 180 71 183 81C186 95 166 126 128 137C123 118 123 108 128 98Z" fill="url(#fanBlade)"/>
  <path d="M128 98C147 133 156 151 147 155C133 160 102 144 85 110C103 101 114 96 128 98Z" fill="url(#fanBlade)"/>
  <path d="M128 98C93 117 76 125 73 115C70 101 90 70 128 59C133 78 133 88 128 98Z" fill="url(#fanBlade)"/>
  <circle cx="128" cy="98" r="18" fill="#E5E7EB" stroke="#94A3B8" stroke-width="3"/>
  <g stroke="#CBD5E1" stroke-width="2">
    <circle cx="128" cy="98" r="58"/>
    <path d="M70 98H186"/>
    <path d="M128 40V156"/>
    <path d="M87 57L169 139"/>
    <path d="M169 57L87 139"/>
    <path d="M76 70L180 126"/>
    <path d="M180 70L76 126"/>
  </g>
</svg>
